<svg width="16" height="16" viewBox="0 0 16 16" fill="none" xmlns="http://www.w3.org/2000/svg">
<path opacity="0.4" d="M10.8267 2.43359H5.17336C3.52669 2.43359 2.19336 3.77359 2.19336 5.41359V11.6869C2.19336 13.3269 3.53336 14.6669 5.17336 14.6669H10.82C12.4667 14.6669 13.8 13.3269 13.8 11.6869V5.41359C13.8067 3.76693 12.4667 2.43359 10.8267 2.43359Z" fill="#2A2A29"/>
<path d="M9.56667 1.33301H6.43334C5.74001 1.33301 5.17334 1.89301 5.17334 2.58634V3.21301C5.17334 3.90634 5.73334 4.46634 6.42667 4.46634H9.56667C10.26 4.46634 10.82 3.90634 10.82 3.21301V2.58634C10.8267 1.89301 10.26 1.33301 9.56667 1.33301Z" fill="#2A2A29"/>
<path d="M10 8.63281H5.33334C5.06 8.63281 4.83334 8.40615 4.83334 8.13281C4.83334 7.85948 5.06 7.63281 5.33334 7.63281H10C10.2733 7.63281 10.5 7.85948 10.5 8.13281C10.5 8.40615 10.2733 8.63281 10 8.63281Z" fill="#2A2A29"/>
<path d="M8.25334 11.2998H5.33334C5.06 11.2998 4.83334 11.0731 4.83334 10.7998C4.83334 10.5265 5.06 10.2998 5.33334 10.2998H8.25334C8.52667 10.2998 8.75334 10.5265 8.75334 10.7998C8.75334 11.0731 8.52667 11.2998 8.25334 11.2998Z" fill="#2A2A29"/>
</svg>
