<svg width="20" height="20" viewBox="0 0 20 20" fill="none" xmlns="http://www.w3.org/2000/svg">
<path d="M6.24999 3.33317C6.71023 3.33317 7.08332 2.96007 7.08332 2.49984C7.08332 2.0396 6.71023 1.6665 6.24999 1.6665H4.99999C3.15904 1.6665 1.66666 3.15889 1.66666 4.99984V14.9998C1.66666 16.8408 3.15904 18.3332 4.99999 18.3332H6.24999C6.71023 18.3332 7.08332 17.9601 7.08332 17.4998C7.08332 17.0396 6.71023 16.6665 6.24999 16.6665H4.99999C4.07952 16.6665 3.33332 15.9203 3.33332 14.9998L3.33332 4.99984C3.33332 4.07936 4.07952 3.33317 4.99999 3.33317H6.24999Z" fill="black"/>
<path d="M18.9226 10.5891C19.248 10.2637 19.248 9.73602 18.9226 9.41058L15.5892 6.07725C15.2638 5.75181 14.7362 5.75181 14.4107 6.07725C14.0853 6.40269 14.0853 6.93032 14.4107 7.25576L16.3215 9.1665L6.66666 9.1665C6.20642 9.1665 5.83332 9.5396 5.83332 9.99984C5.83332 10.4601 6.20642 10.8332 6.66666 10.8332L16.3215 10.8332L14.4107 12.7439C14.0853 13.0694 14.0853 13.597 14.4107 13.9224C14.7362 14.2479 15.2638 14.2479 15.5892 13.9224L18.9226 10.5891Z" fill="black"/>
</svg>
