<svg width="129" height="46" viewBox="0 0 129 46" fill="none" xmlns="http://www.w3.org/2000/svg">
<g clip-path="url(#clip0_7271_23079)">
<path d="M48.5294 22.9843H45.8423V28.5955H43.8278V13.2148H48.5294C51.7358 13.2148 53.8164 15.3375 53.8164 18.1116C53.8164 20.8857 51.7358 22.9873 48.5294 22.9873M48.5294 15.1003H45.8423V21.1228H48.5294C50.652 21.1228 51.8229 19.8229 51.8229 18.1116C51.8229 16.4003 50.652 15.1003 48.5294 15.1003Z" fill="#A51D21"/>
<path d="M55.071 23.1796C55.071 20.0813 57.3467 17.5474 60.379 17.5474C62.0242 17.5474 63.4773 18.391 64.1919 19.4328V17.7635H66.0563V28.5958H64.1919V26.9265C63.4773 27.9653 62.0242 28.8119 60.379 28.8119C57.3467 28.8119 55.071 26.278 55.071 23.1796ZM64.342 23.1796C64.342 20.991 62.8258 19.2587 60.6582 19.2587C58.4906 19.2587 56.9534 20.991 56.9534 23.1796C56.9534 25.3683 58.4695 27.1006 60.6582 27.1006C62.8469 27.1006 64.342 25.3683 64.342 23.1796Z" fill="#A51D21"/>
<path d="M70.3647 33.1228L72.7245 28.031L67.9809 17.7632H70.0404L73.7663 25.9954L77.4711 17.7632H79.5486L72.4453 33.1228H70.3647Z" fill="#A51D21"/>
<path d="M82.3229 19.4748H80.0261V17.7635H82.3229V15.5749C82.3229 13.3202 83.7309 12.2153 85.6374 12.2153C86.3099 12.2153 86.8293 12.3234 87.3277 12.4975V14.1428C86.9794 13.9897 86.418 13.9266 85.9856 13.9266C84.7727 13.9266 84.1873 14.38 84.1873 15.767V17.7605H87.3277V19.4718H84.1873V28.5928H82.3259V19.4718L82.3229 19.4748ZM88.9729 13.5393C88.9729 12.8248 89.5584 12.2183 90.3149 12.2183C91.0715 12.2183 91.6149 12.8248 91.6149 13.5393C91.6149 14.2959 91.0745 14.8603 90.3149 14.8603C89.5554 14.8603 88.9729 14.2959 88.9729 13.5393ZM89.3632 17.7635H91.2276V28.5958H89.3632V17.7635Z" fill="#000001"/>
<path d="M98.7212 24.5003L95.4277 28.5954H93.1099L97.5503 23.1132L93.4792 17.7632H95.7309L98.7212 21.6842L101.687 17.7632H103.963L99.868 23.1132L104.311 28.5954H102.015L98.7212 24.5003Z" fill="#000001"/>
<path d="M107.017 33.1228L109.38 28.031L104.636 17.7632H106.692L110.418 25.9954L114.123 17.7632H116.204L109.097 33.1228H107.017Z" fill="#000001"/>
<path d="M19.4945 27.7129H19.4375C18.5548 27.7129 17.8403 26.9984 17.8403 26.1157C17.8343 25.9446 17.8343 25.1129 18.2306 24.2152C18.6209 23.3296 19.2904 22.6541 20.164 22.2608C20.7825 21.9816 21.5061 21.8404 22.3167 21.8404H28.6094C30.9662 21.8404 32.9567 19.913 32.9177 17.5532C32.8787 15.2624 31.0053 13.413 28.7055 13.413H12.8055C12.8055 12.5004 13.544 11.7588 14.4597 11.7588H28.5944C31.8009 11.7588 34.4969 14.2837 34.572 17.4871C34.65 20.7866 31.987 23.4977 28.7055 23.4977H22.3167C21.7402 23.4977 21.2449 23.5908 20.8426 23.7709C20.3412 23.9961 19.9719 24.3714 19.7437 24.8818C19.4795 25.4792 19.4945 26.0586 19.4945 26.0647V26.0977V27.7099V27.7129Z" fill="#000001"/>
<path d="M27.5732 16.7998H25.3666C25.3425 16.7998 25.3215 16.7998 25.3095 16.7998H18.6655C15.438 16.7998 12.811 19.4208 12.796 22.6422C12.796 22.6512 12.796 22.6603 12.796 22.6693V22.7713V27.7071C12.796 30.9495 15.429 33.5825 18.6655 33.5825H18.7736C21.6317 33.5285 24.0546 31.4029 24.4719 28.5747L24.4899 27.8032V27.6801C24.4779 27.2327 24.1086 26.8785 23.6613 26.8785H23.6523C23.1989 26.8785 22.8356 27.2477 22.8356 27.7011V28.3105C22.5414 30.3731 20.7581 31.9253 18.6655 31.9253H18.6294C16.3207 31.9073 14.4503 30.0248 14.4503 27.7131V22.6212C14.4773 20.3215 16.3567 18.4571 18.6625 18.4571H25.3516H25.3546H27.5702V18.4451C27.9035 18.409 28.2037 18.2709 28.4469 18.0668C28.8102 17.7635 29.0414 17.3102 29.0414 16.7998H27.5702H27.5732Z" fill="#A51D21"/>
</g>
<defs>
<clipPath id="clip0_7271_23079">
<rect width="103.408" height="21.8236" fill="white" transform="translate(12.7962 11.7588)"/>
</clipPath>
</defs>
</svg>
