<svg width="16" height="16" viewBox="0 0 16 16" fill="none" xmlns="http://www.w3.org/2000/svg">
<path d="M12.9133 3.26008L9.00662 1.52008C8.43329 1.26674 7.56662 1.26674 6.99329 1.52008L3.08662 3.26008C2.09996 3.70008 1.95329 4.30008 1.95329 4.62008C1.95329 4.94008 2.09996 5.54008 3.08662 5.98008L6.99329 7.72008C7.27996 7.84675 7.63996 7.91341 7.99996 7.91341C8.35996 7.91341 8.71996 7.84675 9.00662 7.72008L12.9133 5.98008C13.9 5.54008 14.0466 4.94008 14.0466 4.62008C14.0466 4.30008 13.9066 3.70008 12.9133 3.26008Z" fill="#2A2A29"/>
<path opacity="0.4" d="M8.00004 11.3602C7.74671 11.3602 7.49338 11.3068 7.26005 11.2068L2.76671 9.20683C2.08004 8.90016 1.54671 8.08016 1.54671 7.32683C1.54671 7.0535 1.76671 6.8335 2.04004 6.8335C2.31338 6.8335 2.53338 7.0535 2.53338 7.32683C2.53338 7.68683 2.83338 8.1535 3.16671 8.30016L7.66004 10.3002C7.87338 10.3935 8.12004 10.3935 8.33338 10.3002L12.8267 8.30016C13.16 8.1535 13.46 7.6935 13.46 7.32683C13.46 7.0535 13.68 6.8335 13.9534 6.8335C14.2267 6.8335 14.4467 7.0535 14.4467 7.32683C14.4467 8.0735 13.9134 8.90016 13.2267 9.20683L8.73338 11.2068C8.50671 11.3068 8.25338 11.3602 8.00004 11.3602Z" fill="#2A2A29"/>
<path opacity="0.4" d="M8.00004 14.6668C7.74671 14.6668 7.49338 14.6135 7.26005 14.5135L2.76671 12.5135C2.02671 12.1868 1.54671 11.4468 1.54671 10.6335C1.54671 10.3601 1.76671 10.1401 2.04004 10.1401C2.31338 10.1401 2.53338 10.3601 2.53338 10.6335C2.53338 11.0535 2.78004 11.4335 3.16671 11.6068L7.66004 13.6068C7.87338 13.7001 8.12004 13.7001 8.33338 13.6068L12.8267 11.6068C13.2067 11.4401 13.46 11.0535 13.46 10.6335C13.46 10.3601 13.68 10.1401 13.9534 10.1401C14.2267 10.1401 14.4467 10.3601 14.4467 10.6335C14.4467 11.4468 13.9667 12.1801 13.2267 12.5135L8.73338 14.5135C8.50671 14.6135 8.25338 14.6668 8.00004 14.6668Z" fill="#2A2A29"/>
</svg>
