<svg width="16" height="16" viewBox="0 0 16 16" fill="none" xmlns="http://www.w3.org/2000/svg">
<path opacity="0.4" d="M1.33333 8.58679V7.41345C1.33333 6.72012 1.9 6.14679 2.6 6.14679C3.80667 6.14679 4.3 5.29345 3.69333 4.24679C3.34667 3.64679 3.55333 2.86679 4.16 2.52012L5.31333 1.86012C5.84 1.54679 6.52 1.73345 6.83333 2.26012L6.90667 2.38679C7.50667 3.43345 8.49333 3.43345 9.1 2.38679L9.17333 2.26012C9.48667 1.73345 10.1667 1.54679 10.6933 1.86012L11.8467 2.52012C12.4533 2.86679 12.66 3.64679 12.3133 4.24679C11.7067 5.29345 12.2 6.14679 13.4067 6.14679C14.1 6.14679 14.6733 6.71345 14.6733 7.41345V8.58679C14.6733 9.28012 14.1067 9.85345 13.4067 9.85345C12.2 9.85345 11.7067 10.7068 12.3133 11.7535C12.66 12.3601 12.4533 13.1335 11.8467 13.4801L10.6933 14.1401C10.1667 14.4535 9.48667 14.2668 9.17333 13.7401L9.1 13.6135C8.5 12.5668 7.51333 12.5668 6.90667 13.6135L6.83333 13.7401C6.52 14.2668 5.84 14.4535 5.31333 14.1401L4.16 13.4801C3.55333 13.1335 3.34667 12.3535 3.69333 11.7535C4.3 10.7068 3.80667 9.85345 2.6 9.85345C1.9 9.85345 1.33333 9.28012 1.33333 8.58679Z" fill="#2A2A29"/>
<path d="M8 10.1668C9.19662 10.1668 10.1667 9.19678 10.1667 8.00016C10.1667 6.80355 9.19662 5.8335 8 5.8335C6.80339 5.8335 5.83334 6.80355 5.83334 8.00016C5.83334 9.19678 6.80339 10.1668 8 10.1668Z" fill="#2A2A29"/>
</svg>
